<?xml version="1.0" encoding="utf-8"?>
<!-- Generator: Adobe Illustrator 23.0.6, SVG Export Plug-In . SVG Version: 6.00 Build 0)  -->
<svg version="1.1" id="Grupo_77" xmlns="http://www.w3.org/2000/svg" xmlns:xlink="http://www.w3.org/1999/xlink" x="0px" y="0px"
	 viewBox="0 0 19 16.8" style="enable-background:new 0 0 19 16.8;" xml:space="preserve">
<style type="text/css">
	.st0{fill:#F7F7F7;}
</style>
<g>
	<path class="st0" d="M10.4,0.1L10.4,0.1C10-0.1,9.6,0,9.2,0.2c0,0,0,0,0,0L4.2,4.4H0.4C0.2,4.4,0,4.5,0,4.7v6.9
		C0,11.9,0.2,12,0.4,12c0,0,0,0,0,0h3.9l4.9,4.5c0,0,0,0,0.1,0c0.3,0.2,0.8,0.2,1.1,0c0.4-0.2,0.6-0.6,0.6-1V1.2
		C10.9,0.7,10.7,0.3,10.4,0.1z M10.2,15.6c0,0.2-0.1,0.3-0.2,0.4c-0.1,0.1-0.2,0.1-0.4,0l-4.9-4.5V9.8c0-0.2-0.1-0.4-0.3-0.4
		C4.2,9.4,4,9.6,4,9.8c0,0,0,0,0,0v1.5H0.7V5.1H4v1.5c0,0.2,0.1,0.4,0.3,0.4c0.2,0,0.4-0.1,0.4-0.3c0,0,0,0,0,0V4.9l4.9-4.1
		c0.1-0.1,0.3-0.1,0.4,0c0.1,0.1,0.2,0.2,0.2,0.4V15.6z"/>
	<path class="st0" d="M15.9,8.2l3-3c0.1-0.1,0.1-0.4,0-0.5l0,0c-0.1-0.1-0.4-0.1-0.5,0l-3,3l-3-3c-0.1-0.1-0.4-0.1-0.5,0l0,0
		c-0.1,0.1-0.1,0.4,0,0.5l3,3l-3,3c-0.1,0.1-0.1,0.4,0,0.5l0,0c0.1,0.1,0.4,0.1,0.5,0l3-3l3,3c0.1,0.1,0.4,0.1,0.5,0l0,0
		c0.1-0.1,0.1-0.4,0-0.5L15.9,8.2z"/>
</g>
</svg>
