<svg id="Grupo_77" data-name="Grupo 77" xmlns="http://www.w3.org/2000/svg" width="18.96" height="16.765" viewBox="0 0 18.96 16.765">
  <path id="Trazado_42" data-name="Trazado 42" d="M949.351,522.146a1.106,1.106,0,0,0-1.127.016.486.486,0,0,0-.046.034l-4.938,4.178h-3.876a.365.365,0,0,0-.365.365v6.924a.364.364,0,0,0,.365.365l3.867,0,4.934,4.534a.611.611,0,0,0,.059.043,1.109,1.109,0,0,0,1.127.016,1.135,1.135,0,0,0,.582-1V523.151a1.14,1.14,0,0,0-.582-1.005Zm-.148,15.469a.418.418,0,0,1-.21.37.38.38,0,0,1-.365.009l-4.892-4.493V531.84a.364.364,0,1,0-.727,0V533.3l-3.279,0V527.1h3.279v1.457a.364.364,0,1,0,.727,0v-1.653l4.887-4.134a.384.384,0,0,1,.37.007.418.418,0,0,1,.21.37Zm0,0" transform="translate(-939 -522)" fill="#f7f7f7"/>
  <path id="Trazado_43" data-name="Trazado 43" d="M969.462,525.22a.365.365,0,0,0-.235.692,6.371,6.371,0,0,1,.009,12.065.365.365,0,0,0,.118.71.379.379,0,0,0,.117-.02,7.1,7.1,0,0,0-.009-13.447Zm0,0" transform="translate(-955.323 -523.743)" fill="#f7f7f7"/>
  <path id="Trazado_44" data-name="Trazado 44" d="M968.619,534.339a4.94,4.94,0,0,0-3.554-4.723.364.364,0,0,0-.2.7,4.188,4.188,0,0,1,0,8.047.365.365,0,0,0,.1.715.406.406,0,0,0,.1-.014,4.942,4.942,0,0,0,3.554-4.724Zm0,0" transform="translate(-952.938 -526.139)" fill="#f7f7f7"/>
</svg>
