<svg xmlns="http://www.w3.org/2000/svg" width="53.107" height="49.483" viewBox="0 0 53.107 49.483">
  <g id="Grupo_69" data-name="Grupo 69" transform="translate(-476.378 -143.952)">
    <path id="Trazado_36" data-name="Trazado 36" d="M485.923,167.834v2.216c0,.177.1.3.326.3h.354v-2.513Zm11.721,1.8s-.429-1.221-.509-1.453a.428.428,0,0,0-.474-.348h-.8v2.513h.271c.2,0,.332-.092.332-.3v-1.758h.012l.777,2.059h.724l.775-2.059h.014v1.758c0,.181.094.3.332.3h.338v-2.513h-.749c-.263,0-.431.073-.509.309-.051.155-.523,1.493-.523,1.493Zm-13.444.026s-.584-1.528-.616-1.615a.292.292,0,0,0-.328-.212h-.505l1.036,2.513h.755l1.068-2.513h-.439a.293.293,0,0,0-.315.2l-.645,1.624Zm7.422-1.3h.342c.248,0,.4-.087.4-.313v-.212h-.985a1.257,1.257,0,0,0,0,2.513h.985v-.214c0-.224-.157-.313-.38-.313h-.362c-.391,0-.751-.14-.751-.73,0-.513.269-.732.751-.732m-2.635,1.046a.4.4,0,0,1-.454.448h-.354c-.246,0-.4-.069-.4-.269s.136-.267.4-.267h.808Zm-.33-1.571h-1.388v.191a.307.307,0,0,0,.33.336h.887c.372,0,.5.124.5.417v.043h-.938c-.692,0-.95.323-.95.761,0,.529.352.765.952.765h.625c.818,0,.991-.409.991-.948v-.627c0-.576-.216-.938-1.011-.938m5.288,2.012a.757.757,0,1,0-.7-.755.681.681,0,0,0,.7.755m0-2.043a1.294,1.294,0,1,1-1.414,1.288,1.256,1.256,0,0,1,1.414-1.288m27.453,1.792v.452c0,.21-.13.3-.332.3h-.275v-.753l-1.038-1.76h.37a.514.514,0,0,1,.513.348c.142.24.464.808.464.808h.012s.338-.631.458-.848a.5.5,0,0,1,.509-.309h.293Zm-2.677.106h.01v-1.866h.673v2.513h-.667a.508.508,0,0,1-.557-.364c-.118-.283-.722-1.7-.722-1.7h-.012v1.758c0,.21-.13.3-.334.3h-.269v-2.513h.785a.437.437,0,0,1,.478.348c.128.323.616,1.518.616,1.518m-7.507.647h.344c.207,0,.336-.09.336-.3V169.5h.836c.7,0,.954-.4.954-.836,0-.527-.358-.834-.954-.834h-1.516Zm.68-2.016h.708c.248,0,.4.134.4.336s-.138.336-.4.336H511.9Zm-3.153,1.3s.468-1.337.525-1.493c.079-.236.24-.309.505-.309h.749v2.513h-.332c-.242,0-.336-.12-.336-.3v-1.758h-.012l-.777,2.059h-.728l-.773-2.059h-.01v1.758c0,.21-.132.3-.334.3h-.273v-2.513h.8a.43.43,0,0,1,.476.348c.079.232.509,1.453.509,1.453Zm-6.787-.545c0,.59.36.73.753.73h.362c.224,0,.376.09.376.313v.214h-.981a1.257,1.257,0,0,1,0-2.513h.981v.212c0,.226-.144.313-.391.313h-.346a.656.656,0,0,0-.753.732m3.076.755a.756.756,0,1,0-.7-.755.676.676,0,0,0,.7.755m0-2.043a1.294,1.294,0,1,1-1.414,1.288,1.255,1.255,0,0,1,1.414-1.288m9.605,1.552.376-.942h.012l.376.942Zm.793-1.528h-.824l-1.091,2.515h.439a.39.39,0,0,0,.411-.3c.016-.041.094-.234.094-.234h1.123s.051.128.065.169a.489.489,0,0,0,.551.364h.348Zm-35.555,1.528.378-.942h.012l.376.942Zm.795-1.528h-.824l-1.092,2.515h.437a.4.4,0,0,0,.415-.3c.016-.041.092-.234.092-.234h1.123s.049.128.063.169a.49.49,0,0,0,.553.364h.35Z" transform="translate(2.296 23.056)" fill="#fff"/>
    <g id="Grupo_68" data-name="Grupo 68" transform="translate(476.378 143.952)">
      <rect id="Rectángulo_28" data-name="Rectángulo 28" width="44.922" height="0.407" transform="translate(4.02 43.941)" fill="#fff"/>
      <path id="Trazado_37" data-name="Trazado 37" d="M477.7,173.81l.732-1.107,1.274.344-.832-1.009.712-1.1-1.233.484-.85-1.011.073,1.312-1.2.454,1.245.324Zm-.175-4.879.926-.958,1.19.586-.623-1.151.9-.936-1.3.238-.643-1.152-.173,1.3-1.27.218,1.162.561Zm.765-4.832,1.094-.751,1.056.791-.4-1.243,1.08-.747-1.326-.014-.411-1.255-.423,1.243-1.284-.03,1.032.767Zm5.473-9.033.68,1.127.1-1.294,1.274-.3-1.217-.507.086-1.316-.856,1-1.18-.509.669,1.1-.85.989Zm15.751-7.735.979-.867,1.121.675-.527-1.213.977-.887-1.3.12-.5-1.184-.285,1.255-1.3.126,1.131.688Zm-18.7,35.687.264-1.3,1.308-.159-1.145-.621.246-1.28-.96.9-1.166-.612.562,1.184-.944.877,1.274-.165Zm6.221-31.317.456,1.241.34-1.261,1.31-.045-1.1-.73.34-1.278-1.027.812-1.068-.72.446,1.208-1.021.806Zm3.862-2.694.206,1.306.58-1.172,1.29.2-.942-.924.576-1.192-1.168.6-.9-.909.212,1.268-1.16.606Zm4.256-.586.791-1.04,1.231.446-.747-1.09.789-1.054-1.255.362-.716-1.066-.035,1.288-1.255.366,1.243.462Zm-16.665,28.888.321,1.263.505-1.231,1.324.1-1.011-.828.49-1.21L479,176.1l-1.029-.828.325,1.272-1.094.678Zm1.473-17.781,1.215-.537.883.985-.15-1.3,1.192-.533-1.294-.264-.163-1.312L481,157.711l-1.253-.273.867.956Zm37.86-7.994.34,1.261.466-1.235,1.318.037-1.023-.818.466-1.2-1.076.706-1.021-.818.336,1.284-1.109.722Zm2.061,2.877,1.269.3.09,1.3.692-1.127,1.284.3-.846-1,.682-1.086-1.19.488-.844-1,.087,1.328Zm-5.933-5.379.57,1.168.222-1.3,1.306-.208-1.16-.614.224-1.265-.918.9-1.16-.606.576,1.2-.948.918Zm9.871,9.44-.163,1.294.9-.973,1.208.535-.645-1.148.881-.926-1.259.248-.645-1.141-.165,1.316-1.3.252Zm-15.383-10.72,1.235-.441.783,1.046-.033-1.328,1.243-.448-1.259-.38-.022-1.286-.73,1.06-1.247-.38.791,1.068Zm19.849,23.736.09-1.306-.865,1.017-1.223-.5.7,1.093-.842,1,1.28-.326.722,1.105.087-1.308,1.243-.307Zm-.875,5.585,1.286-.063-1.082-.694.33-1.261-1.038.828-1.109-.722.484,1.219-1.021.816,1.322-.077.5,1.221Zm-2.543,4.427.25,1.3.57-1.182,1.272.181-.93-.885.568-1.174-1.178.614-.956-.922.244,1.282-1.151.612Zm-32.3-8.219a13.32,13.32,0,0,0-2.155,2.059,8.535,8.535,0,0,0-.58.732s-.362.592-.549.84-.673.954-.881,1.257a7.526,7.526,0,0,1-.631,1.007c-.183.232-.37.531-.728.991-.478.618-.846,1.125-.761,1.188a15.649,15.649,0,0,0,1.51-1.733c.315-.382.659-.777.946-1.149.138-.183.464-.488.57-.643a2.888,2.888,0,0,1,.466-.545c.425-.346.659-.374.791-.564.071-.1.9-1.355,1.2-1.866.281-.482.966-1.424.8-1.573m35.286-7.957-.651,1.158-1.3-.254.9.95-.631,1.137,1.194-.566.916.948-.163-1.3,1.168-.541-1.271-.232Zm-3.184-3.412,1.064.757-.405,1.241,1.06-.785,1.089.757-.417-1.249,1.042-.751-1.284.01-.411-1.241-.419,1.259ZM504,147.107l1.125-.663.968.867-.281-1.288,1.127-.678-1.306-.134-.263-1.259-.515,1.182-1.3-.128.983.891Zm.169,22.917c.122.36.574,2.478.706,2.919s.273.462.346.631a1.019,1.019,0,0,0,.84.741c.543.165.588.9.938,1.55.323.614.627,1.164.912,1.829s1.756,4.283,2,4.836c.09.2.787.2.708,0a16.853,16.853,0,0,1-.824-2.4c-.159-.645.444-.189.061-1.221a3.74,3.74,0,0,0-.706-1.143,6.8,6.8,0,0,1-.535-1.375c-.155-.36-.077-.378-.4-1.243-.238-.625.441-.417.053-1.39-.248-.631-1.5-2.917-1.642-3.149-.073-.128-.317-.521-.614-.991-.281-.446-.517-.92-.647-1.127-.262-.417-.743-1.337-1.009-1.717s-.6-1.223-.745-1.084a10.714,10.714,0,0,0,.629,2.193,1.489,1.489,0,0,1-.075,1.355c-.132.224-.132.376,0,.781m8.514,6.541c.366.616.468.494.62.5.348.012,1.125.846,1.282,1.074s1.4,1.481,1.725,1.786c.14.132,1.129,1.735,1.259,1.622s-.38-.9-.458-1.066a5.816,5.816,0,0,1-.5-.787,12.321,12.321,0,0,0-.914-1.546,12.472,12.472,0,0,0-.84-1.318c-.311-.354-.059-.45-.384-.761-.193-.183-.8-.724-.938-.838s-.624-.553-.913-.8-.954-.708-.932-1.009a1.7,1.7,0,0,0-.366-1.09,12.8,12.8,0,0,0-1.206-1.373,15.71,15.71,0,0,1-1.335-1.392c-.433-.513-.759-.981-.857-.916-.144.094.5,1,.572,1.107a12.5,12.5,0,0,1,.887,1.733c.075.346,1.467,2.69,1.766,3.42.173.421,1.127.993,1.528,1.656m11.169,8.285a1.112,1.112,0,1,1-1.109-1.139,1.107,1.107,0,0,1,1.109,1.139m-2.5,0a1.387,1.387,0,1,0,1.386-1.365,1.364,1.364,0,0,0-1.386,1.365m-2.588-6.014c.053-.057-.084-.228-.157-.362s-.557-.659-.643-.8-.692-1.017-.912-1.3c-.384-.5-.031-.678-.232-.981a12.7,12.7,0,0,0-1.151-1.316c-.293-.3-.624-.578-.907-.83-.452-.405-.8-.706-.85-.653-.081.079.189.4.3.545s.3.4.535.688c.393.464.03.81.4,1.182.061.061,1.086,1.208,1.337,1.422.376.33,1.709,1.914,1.8,2,.157.146.433.466.474.411m-21.128-7.521a2.774,2.774,0,0,0,.3-.852.1.1,0,0,0-.161-.026c-.342.34-1.042,1.548-1.3,1.683a2.853,2.853,0,0,0-1.036,1.268c-.13.207-.291.535-.576.952-.25.364-.535.9-.639,1.09s-.144.37.047.37.043.313-.191.661a13.812,13.812,0,0,0-.561,1.432,5,5,0,0,0-.151.875c-.047.134-.679,1.477-.842,1.776a1.333,1.333,0,0,0-.114.368c-.057.134.014.167.114.075a12.842,12.842,0,0,1,1-1.27.858.858,0,0,0,.419-.757c.03-.441.315-.561.535-.822a4.217,4.217,0,0,0,.673-.958c.146-.37.334-.089.68-.643s1.115-1.927,1.288-2.195.049-.649.027-.966a4.046,4.046,0,0,1,.116-1.015,7.759,7.759,0,0,1,.378-1.046m2.952-10.486c.289,0,.7-.521.926-.97.234-.494.35-.769.641-1.394.016-.03-.016-.03-.045-.03a1.513,1.513,0,0,0-.93.612,3.756,3.756,0,0,0-.794,1.436c-.047.246.059.346.2.346m7.345.439c.319.161.724-.549,1.072-1.2s.627-1.469.334-1.569c-.334-.134-.753.5-1.1,1.158s-.61,1.467-.3,1.613m-12.543-.439c.291,0,.694-.521.928-.97.232-.494.352-.769.637-1.394.014-.03-.014-.03-.041-.03a1.5,1.5,0,0,0-.928.612,3.743,3.743,0,0,0-.8,1.436c-.045.246.071.346.2.346m-3.19-5.91c2.258.106,3.585,1.213,3.585,2.4,0,2.122-3.369,2.484-3.369,2.484a4.724,4.724,0,0,1-4.535,4.047c-2.165-.018-2.134-1.77-2.055-2,.087-.264.222-.5.5-.5a.5.5,0,0,1,.5.5.47.47,0,0,1-.224.407c-.287.177-.234.4-.234.4,0,.936,1.208,1,1.52,1,3.231,0,2.859-5.316,5.7-7.123.132-.087.234,0,.155.092a7.738,7.738,0,0,0-1.225,2.9,2.379,2.379,0,0,0,2.277-2.214,2.338,2.338,0,0,0-2.592-2.2c-3.326,0-4.767,2.321-4.767,3.587s.8,1.725,1.379,1.725c.8,0,1.056-.541.958-.8-.159-.413.063-.757.311-.757.1,0,.429-.016.429.568,0,.56-.8,1.127-1.676,1.127a1.955,1.955,0,0,1-2.142-1.86c0-2.818,3.463-3.884,5.509-3.784m5.6,3.444c-.36.814-.621,1.4-.956,2.161-.029.077-.057.2.018.248a.172.172,0,0,0,.169,0,2.787,2.787,0,0,0,1.093-1.263l.523-1.156h.734l-.2.435c-.016.028-.016.037,0,.028a6.43,6.43,0,0,1,.771-.6c.116-.055.389-.055.36.136-.014.169-.146.3-.216.462a.668.668,0,0,0-.073.3c.029.073.116.118.23.031a2.491,2.491,0,0,0,.309-.218,2.964,2.964,0,0,1,.68-.482,1.885,1.885,0,0,1,1.756-.069c-.364.81-.637,1.42-.985,2.191-.061.128-.016.173.028.2a.245.245,0,0,0,.25-.018,2.8,2.8,0,0,0,1-1.129c.191-.407.364-.81.568-1.272h.759l-.21.446a.065.065,0,0,0,.03.016c.2-.189.732-.612,1.123-.525a.466.466,0,0,1,.3.5,2.431,2.431,0,0,1,.867-.482c.525-.132.73.234.57.582-.2.478-.61,1.42-.842,1.9a.2.2,0,0,0,0,.185c.057.043.159,0,.2-.028a2.989,2.989,0,0,0,.608-.657,2.372,2.372,0,0,1,.712-1.361,1.627,1.627,0,0,1,1.656-.594.707.707,0,0,1,.419.507,1,1,0,0,1,.057.3c.321.232.739-.149.912-.435.047-.118.1-.25.134-.334.187.012.549,0,.757,0l-.944,2.163a.617.617,0,0,0-.075.3c0,.077.085.092.175.077.264-.041.684-.555.9-.989.242-.535.478-.985.712-1.522h.765c-.3.726-.647,1.493-.9,2.059a.545.545,0,0,0-.087.4c.03.073.134.057.193.03a3.891,3.891,0,0,0,1.1-1.219c.207-.466.36-.814.578-1.265h.789l-.191.45a2.213,2.213,0,0,1,.987-.537.449.449,0,0,1,.492.157.65.65,0,0,1-.041.612c-.216.494-.466,1.031-.684,1.51-.039.118-.053.228.032.277.116.071.669-.267.944-.875.246-.535.405-.854.622-1.377h-.4l.114-.234h.407l.58-1.261h.783l-.562,1.261h.59l-.112.234h-.58c-.334.71-.614,1.3-.9,1.975a1.464,1.464,0,0,0-.173.844c.043.128.2.157.35.112a2.121,2.121,0,0,0,1.017-.946c.012-.039.246-.01.23.02a2.05,2.05,0,0,1-1.609,1.2.65.65,0,0,1-.509-.277.746.746,0,0,1-.116-.258,1.19,1.19,0,0,1,0-.527,2.967,2.967,0,0,1-1.115.673.407.407,0,0,1-.482-.252.844.844,0,0,1,.045-.474c.273-.6.519-1.135.781-1.76.018-.028,0-.134-.031-.144a.254.254,0,0,0-.285.043,3.4,3.4,0,0,0-1.046,1.465c-.161.362-.336.726-.509,1.078h-.771c.087-.216.22-.509.319-.743,0-.016-.014-.016-.014,0a2.873,2.873,0,0,1-1.131.787.348.348,0,0,1-.4-.163.608.608,0,0,1-.035-.553c0-.01-.012-.01-.026,0a2.508,2.508,0,0,1-.958.684c-.439.132-.83-.173-.555-.812.075-.173.293-.657.537-1.235a.94.94,0,0,1-.576.043c-.018,0-.018,0-.018.014a2.674,2.674,0,0,1-1.394,1.9,1.1,1.1,0,0,1-1.131-.028.858.858,0,0,1-.289-.641c-.378.378-.8.855-1.381.771a.323.323,0,0,1-.2-.173.691.691,0,0,1,.029-.645c.275-.576.509-1.117.785-1.766.045-.09-.083-.161-.171-.116a1.385,1.385,0,0,0-.6.537,1.253,1.253,0,0,0-.23.372c-.252.584-.523,1.135-.755,1.7h-.789c.354-.793.684-1.564,1.032-2.348a.183.183,0,0,0-.028-.2c-.073-.033-.191.028-.273.071a1.6,1.6,0,0,0-.48.523,4.417,4.417,0,0,0-.346.671l-.588,1.284h-.767c.075-.171.22-.507.307-.678,0-.016-.016-.028-.016-.016-.419.35-.958.8-1.351.728a.349.349,0,0,1-.275-.248.948.948,0,0,1,.016-.4c0-.02-.016-.02-.031,0a2.379,2.379,0,0,1-1.058.682.5.5,0,0,1-.549-.279.987.987,0,0,1,.041-.887,3.882,3.882,0,0,1,.362-.68.787.787,0,0,1-.378.045.442.442,0,0,1-.258-.163.478.478,0,0,1-.075-.287c.014-.016-.03-.016-.059,0a1.618,1.618,0,0,0-.448.651l-.673,1.51h-.781l.289-.637c.014-.016,0-.031-.016-.016-.405.362-.9.771-1.292.7a.361.361,0,0,1-.26-.244,1.252,1.252,0,0,1,0-.411H496a2.081,2.081,0,0,1-1.042.671.449.449,0,0,1-.541-.275,1.185,1.185,0,0,1,.031-.873,3.4,3.4,0,0,1,1.611-1.772,1.939,1.939,0,0,1,1.739-.087m-16.872,12.16a23.072,23.072,0,0,0,2.45,10.13c2.838-2.643,10.3-11.059,11.151-12.042,1.3-1.487,1.864-.539,2.561-1.369a2.877,2.877,0,0,1,.759-.728,6.572,6.572,0,0,0,.726-.649c.151-.116.5-.572.763-.8s.8-.574,1.339-1.034,1.449-1.526,2.441-1.526a2.162,2.162,0,0,1,1.78.9c.09.092.816.734.934.855a2.951,2.951,0,0,0,1.333.763c.419,0,.728.46.954.686.5.456,2.57,2.627,3.247,3.094.307.208.592.169.82.346a1.911,1.911,0,0,0,.476.321,1.294,1.294,0,0,1,1.088.572,2.992,2.992,0,0,0,.307.191,6.051,6.051,0,0,1,.95,1.086c.224.391,5.469,7.347,7.344,9.837a22.077,22.077,0,1,0-41.422-10.63m41.522,13.741h.334c.167,0,.344.039.344.234,0,.242-.185.258-.385.258h-.293Zm-.232,1.377h.232v-.684h.277l.415.684h.273l-.45-.7a.407.407,0,0,0,.409-.431c0-.313-.183-.446-.559-.446h-.6Z" transform="translate(-476.378 -143.952)" fill="#fff"/>
    </g>
  </g>
</svg>
