<svg xmlns="http://www.w3.org/2000/svg" width="55.17518" height="94.00932" viewBox="0 0 55.17518 94.00932"><defs><style>.adafdcae-afd0-42bf-bd71-b4c6d5ec64b0{fill:#fff;}</style></defs><title>sound-icon-sprite</title><g id="a2fb35cb-c990-47ed-b89e-b9a9a1b4a98e" data-name="Layer 2"><g id="a3492db5-b51a-47b1-90c6-077f00ceec12" data-name="Capa 1"><path class="adafdcae-afd0-42bf-bd71-b4c6d5ec64b0" d="M46.914,69.50835l7.293-7.293a.99985.99985,0,0,0-1.414-1.414l-7.293,7.293-7.293-7.293a.99985.99985,0,0,0-1.414,1.414l7.293,7.293-7.293,7.293a.99985.99985,0,1,0,1.414,1.414l7.293-7.293,7.293,7.293a.99985.99985,0,1,0,1.414-1.414Z"/><path class="adafdcae-afd0-42bf-bd71-b4c6d5ec64b0" d="M53.5,79.00835a1.49079,1.49079,0,0,1-1.06055-.43945L45.5,71.62944,38.56055,78.5689a1.53628,1.53628,0,0,1-2.1211,0,1.50123,1.50123,0,0,1,0-2.1211l6.93946-6.93945L36.43945,62.5689a1.503,1.503,0,0,1,0-2.1211,1.53436,1.53436,0,0,1,2.1211,0L45.5,67.38725l6.93945-6.93945a1.53436,1.53436,0,0,1,2.1211,0,1.503,1.503,0,0,1,0,2.1211l-6.93946,6.93945,6.93946,6.93945A1.5,1.5,0,0,1,53.5,79.00835Zm-8-8.793,7.64648,7.64648a.51081.51081,0,0,0,.707,0,.49982.49982,0,0,0,0-.707L46.207,69.50835l7.64649-7.64649a.5016.5016,0,0,0,0-.707.51083.51083,0,0,0-.707,0L45.5,68.80132l-7.64648-7.64649a.51083.51083,0,0,0-.707,0,.5016.5016,0,0,0,0,.707L44.793,69.50835l-7.64649,7.64648a.49982.49982,0,0,0,0,.707.51081.51081,0,0,0,.707,0Z"/><path class="adafdcae-afd0-42bf-bd71-b4c6d5ec64b0" d="M28.904,47.90835a3.02873,3.02873,0,0,0-3.09.044.929.929,0,0,0-.13.093l-13.55,11.463H1.5a.99909.99909,0,0,0-1,1v19a1.00036,1.00036,0,0,0,1,1l10.61-.005,13.543,12.44a.9761.9761,0,0,0,.161.12,3.02908,3.02908,0,0,0,3.09.044,3.12191,3.12191,0,0,0,1.596-2.755v-39.688A3.12468,3.12468,0,0,0,28.904,47.90835Zm-.404,42.444a1.14724,1.14724,0,0,1-.579,1.015,1.04873,1.04873,0,0,1-1,.026L13.5,79.06435v-4.556a1,1,0,0,0-2,0v3.996l-9,.004v-17h9v4a1,1,0,0,0,2,0v-4.536l13.405-11.34a1.0456,1.0456,0,0,1,1.016.018,1.14563,1.14563,0,0,1,.579,1.014Z"/><path class="adafdcae-afd0-42bf-bd71-b4c6d5ec64b0" d="M27.397,94.00932a3.55956,3.55956,0,0,1-1.84131-.51855,1.37185,1.37185,0,0,1-.24365-.18164L11.915,81.00347,1.5,81.00835a1.50123,1.50123,0,0,1-1.5-1.5v-19a1.50164,1.50164,0,0,1,1.5-1.5H11.95068L25.36133,47.66362a1.46005,1.46005,0,0,1,.19678-.14111,3.52152,3.52152,0,0,1,3.59228-.04932A3.61811,3.61811,0,0,1,31,50.66411v39.688a3.63085,3.63085,0,0,1-3.603,3.65722ZM12.30469,80.00347,26.07227,92.6353a2.55838,2.55838,0,0,0,2.58593.03613A2.62435,2.62435,0,0,0,30,90.3521v-39.688a2.63087,2.63087,0,0,0-1.3418-2.3208h0a2.541,2.541,0,0,0-2.58642.03711L12.31689,60.00835H1.5a.50034.50034,0,0,0-.5.5v19a.49321.49321,0,0,0,.146.35254.50018.50018,0,0,0,.354.14746Zm15.084,12.00585a1.525,1.525,0,0,1-.69385-.16992l-.1123-.07812L13,79.28374V74.50835a.5.5,0,0,0-1,0v4.49609L2,79.00835v-18H12v4.5a.5.5,0,0,0,1,0V60.74028L26.67188,49.19a1.54149,1.54149,0,0,1,1.49462.0249A1.64109,1.64109,0,0,1,29,50.66411v39.688a1.64361,1.64361,0,0,1-.833,1.45117A1.62224,1.62224,0,0,1,27.38867,92.00932Zm-.1875-1.03808a.54343.54343,0,0,0,.4751-.03906A.64559.64559,0,0,0,28,90.3521v-39.688a.64432.64432,0,0,0-.3252-.57861.538.538,0,0,0-.49511-.03077L14,61.20415v4.3042a1.5,1.5,0,0,1-3,0v-3.5H3v16l8-.00391V74.50835a1.5,1.5,0,0,1,3,0v4.33594Z"/><path class="adafdcae-afd0-42bf-bd71-b4c6d5ec64b0" d="M28.904.90385a3.02873,3.02873,0,0,0-3.09.044.929.929,0,0,0-.13.093l-13.55,11.463H1.5a.99909.99909,0,0,0-1,1v19a1.00036,1.00036,0,0,0,1,1l10.61-.005,13.543,12.44a.97616.97616,0,0,0,.161.12,3.02908,3.02908,0,0,0,3.09.044,3.12193,3.12193,0,0,0,1.596-2.755V3.65985A3.12468,3.12468,0,0,0,28.904.90385Zm-.404,42.444a1.14724,1.14724,0,0,1-.579,1.015,1.04873,1.04873,0,0,1-1,.026L13.5,32.05985v-4.556a1,1,0,0,0-2,0v3.996l-9,.004v-17h9v4a1,1,0,0,0,2,0v-4.536l13.405-11.34a1.0456,1.0456,0,0,1,1.016.018,1.14563,1.14563,0,0,1,.579,1.014Z"/><path class="adafdcae-afd0-42bf-bd71-b4c6d5ec64b0" d="M27.397,47.005a3.562,3.562,0,0,1-1.84179-.51855,1.45469,1.45469,0,0,1-.23926-.17822L11.915,33.99862,1.50049,34.004A1.50039,1.50039,0,0,1,0,32.504v-19a1.50164,1.50164,0,0,1,1.5-1.5H11.95068L25.36133.65926a1.42525,1.42525,0,0,1,.20019-.14307A3.51735,3.51735,0,0,1,29.15039.46883h0A3.61811,3.61811,0,0,1,31,3.65975v39.688A3.63085,3.63085,0,0,1,27.397,47.005ZM12.30469,32.99862,26.07275,45.63094a2.55618,2.55618,0,0,0,2.58545.03613A2.62742,2.62742,0,0,0,30,43.34774V3.65975A2.63086,2.63086,0,0,0,28.6582,1.339h0a2.53556,2.53556,0,0,0-2.58593.03711L12.31689,13.004H1.5a.50034.50034,0,0,0-.5.5v19a.49394.49394,0,0,0,.14551.35254A.50011.50011,0,0,0,1.5,33.004ZM27.38818,45.00447a1.52346,1.52346,0,0,1-.69336-.16943l-.1123-.07812L13,32.27938V27.504a.5.5,0,0,0-1,0v4.49609L2,32.004v-18H12v4.5a.5.5,0,0,0,1,0V13.73592L26.67188,2.18563a1.54375,1.54375,0,0,1,1.4956.02539A1.63913,1.63913,0,0,1,29,3.65975v39.688a1.64148,1.64148,0,0,1-.833,1.45019A1.622,1.622,0,0,1,27.38818,45.00447Zm-.1875-1.03759a.54567.54567,0,0,0,.47559-.04A.64457.64457,0,0,0,28,43.34774V3.65975a.64193.64193,0,0,0-.3252-.57813.52845.52845,0,0,0-.49462-.03125L14,14.19979V18.504a1.5,1.5,0,0,1-3,0v-3.5H3v16l8-.00391V27.504a1.5,1.5,0,0,1,3,0v4.33593Z"/><path class="adafdcae-afd0-42bf-bd71-b4c6d5ec64b0" d="M49.44579,23.50269A12.7745,12.7745,0,0,0,40.7706,11.404a.65641.65641,0,1,0-.423,1.24282A11.46511,11.46511,0,0,1,40.364,34.35855a.65657.65657,0,0,0,.21153,1.27807.70578.70578,0,0,0,.21151-.03525,12.78591,12.78591,0,0,0,8.65878-12.09868Z"/><path class="adafdcae-afd0-42bf-bd71-b4c6d5ec64b0" d="M40.57557,36.13647a1.1565,1.1565,0,0,1-1.09473-.78321,1.14044,1.14044,0,0,1,.05713-.88379,1.15828,1.15828,0,0,1,.6626-.58349,10.96508,10.96508,0,0,0-.01367-20.76563,1.1593,1.1593,0,0,1-.72168-1.46972,1.15458,1.15458,0,0,1,1.46826-.71924,13.278,13.278,0,0,1,.01513,25.14306A1.23324,1.23324,0,0,1,40.57557,36.13647ZM40.558,11.86889a.15579.15579,0,0,0-.06787.01562.152.152,0,0,0-.07813.08838.15745.15745,0,0,0,.09912.20117,11.96539,11.96539,0,0,1,.01465,22.65772.17542.17542,0,0,0-.09912.19629.15919.15919,0,0,0,.14893.1084,12.272,12.272,0,0,0,.03418-23.25879A.15986.15986,0,0,0,40.558,11.86889Z"/><path class="adafdcae-afd0-42bf-bd71-b4c6d5ec64b0" d="M44.47862,8.00846A.65536.65536,0,1,0,43.967,9.21523a15.41765,15.41765,0,0,1-.45171,28.56862.65429.65429,0,0,0,.2369,1.265.678.678,0,0,0,.237-.04181,16.7276,16.7276,0,0,0,.48944-30.99854Z"/><path class="adafdcae-afd0-42bf-bd71-b4c6d5ec64b0" d="M43.75233,39.54858a1.15394,1.15394,0,0,1-.418-2.23047,14.91784,14.91784,0,0,0,.4375-27.64258,1.15372,1.15372,0,0,1-.61426-1.51319,1.15908,1.15908,0,0,1,1.51611-.61425h0a17.22782,17.22782,0,0,1-.5039,31.92529A1.17752,1.17752,0,0,1,43.75233,39.54858Zm.46972-31.09229a.157.157,0,0,0-.144.09814.149.149,0,0,0-.00049.11573.15216.15216,0,0,0,.083.084,15.91776,15.91776,0,0,1-.46436,29.4961.15667.15667,0,0,0-.08886.20263.15378.15378,0,0,0,.145.09571A16.2172,16.2172,0,0,0,44.28309,8.469.15044.15044,0,0,0,44.22205,8.45629Z"/><path class="adafdcae-afd0-42bf-bd71-b4c6d5ec64b0" d="M43.544,23.50419A8.89442,8.89442,0,0,0,37.14869,15.002a.65623.65623,0,0,0-.36152,1.26168,7.53715,7.53715,0,0,1,0,14.48107.65464.65464,0,0,0,.17874,1.28383.60748.60748,0,0,0,.18278-.02542A8.89342,8.89342,0,0,0,43.544,23.50419Z"/><path class="adafdcae-afd0-42bf-bd71-b4c6d5ec64b0" d="M36.9657,32.52856a1.15886,1.15886,0,0,1-1.10742-.83594,1.15079,1.15079,0,0,1,.792-1.42871,7.03721,7.03721,0,0,0-.002-13.52,1.15431,1.15431,0,0,1-.78906-1.43457,1.15368,1.15368,0,0,1,1.42773-.7876,9.3471,9.3471,0,0,1,.00049,17.96191A1.07127,1.07127,0,0,1,36.9657,32.52856Zm.002-17.05225a.15887.15887,0,0,0-.07569.02.14687.14687,0,0,0-.07226.09082.15124.15124,0,0,0,.01123.11963.16043.16043,0,0,0,.09619.07666,8.03743,8.03743,0,0,1-.001,15.44189.15147.15147,0,0,0-.09521.07422.14518.14518,0,0,0-.0127.11279.15371.15371,0,0,0,.14746.11622,8.34245,8.34245,0,0,0,.04444-16.0459A.15185.15185,0,0,0,36.96766,15.47631Z"/></g></g></svg>