<?xml version="1.0" encoding="utf-8"?>
<!-- Generator: Adobe Illustrator 23.0.4, SVG Export Plug-In . SVG Version: 6.00 Build 0)  -->
<svg version="1.1" xmlns="http://www.w3.org/2000/svg" xmlns:xlink="http://www.w3.org/1999/xlink" x="0px" y="0px"
	 viewBox="0 0 383.53 179.98" style="enable-background:new 0 0 383.53 179.98;" xml:space="preserve">
<style type="text/css">
	.st0{fill:#75787B;}
	.st1{fill:#DBE442;}
	.st2{fill:#59CBE8;}
	.st3{fill:#E4002B;}
	.st4{fill:#FFBF3F;}
	.st5{fill:#8246AF;}
	.st6{fill:#F04E98;}
	.st7{fill:none;}
</style>
<g id="Background">
</g>
<g id="Imagotipo">
	<g id="XMLID_203_">
		<g id="XMLID_205_">
			<path id="XMLID_231_" class="st0" d="M335.68,86.17c0-3.26,2.81-5.89,6.31-5.89c3.47,0,6.31,2.63,6.31,5.89
				c0,3.21-2.85,5.86-6.31,5.86C338.49,92.03,335.68,89.38,335.68,86.17z M336.72,86.17c0,2.67,2.35,4.88,5.24,4.88
				c2.92,0,5.26-2.22,5.26-4.88c0-2.7-2.34-4.88-5.26-4.88C339.06,81.28,336.72,83.47,336.72,86.17z M344.88,89.33h-1.44l-0.95-2.23
				c-0.11-0.21-0.11-0.24-0.43-0.24h-1.12v2.47h-1.23v-6.39c0.97-0.06,1.66-0.1,2.34-0.1c1.38,0,2.63,0.42,2.63,2.01
				c0,0.77-0.39,1.38-1.08,1.69C344.13,87.45,344.84,89.25,344.88,89.33z M340.94,83.98v1.8h1.23c0.76,0,1.3-0.21,1.3-0.83
				c0-0.79-0.47-1-1.37-1C341.7,83.95,341.34,83.95,340.94,83.98z"/>
			<rect id="XMLID_230_" x="263.43" y="69.42" class="st1" width="7.7" height="39.51"/>
			<path id="XMLID_227_" class="st2" d="M245.82,86.32c-3.3,0-5.44,1.26-5.44,4.73v6.1c0,3.8,1.21,6.21,5.33,6.21
				c5.17,0,5.88-4.61,5.88-8.85C251.59,90.17,250.99,86.32,245.82,86.32 M247.47,109.08c-3.24,0-5.01-0.77-6.82-3.35h-0.11v13.98
				h-7.75V80.88h6.54l0.49,3.25h0.11c1.98-2.86,4.4-3.85,7.81-3.85c8.41,0,11.71,6.6,11.71,14.13
				C259.45,102.27,256.21,109.08,247.47,109.08"/>
			<path id="XMLID_226_" class="st3" d="M319.9,109.58c-3.63,9.18-5.39,11.27-12.1,11.27c-1.1,0-2.25-0.05-4.18-0.27v-6.43
				c0.5,0.05,1.43,0.16,3.08,0.16c2.97,0,3.69-0.77,4.67-3.24l1.27-3.13l-10.83-27.05h8.41l6.38,19.08h0.11l6.21-19.08h8.3
				L319.9,109.58z"/>
			<path id="XMLID_223_" class="st4" d="M300.11,101.98v-1.19c0-0.01,0-0.01,0-0.01v-9.4c0-7.92-3.02-11.11-11.11-11.11
				c-4.89,0-8.91,1.1-13.25,3.3l2.42,5.28c3.08-1.71,6.55-2.86,10.12-2.86c2.8,0,4.07,0.82,4.07,3.41v1.31
				c-6.87-0.05-17.26,0.88-17.26,10.01c0,5.33,3.68,8.41,8.91,8.41c3.39,0,6.5-1.14,9.18-3.26c0.02,0.17,0.04,0.31,0.07,0.4
				c0.84,2.66,5.41,2.84,8.86,2.66l0.28-5.88C300.94,103.01,300.11,102.82,300.11,101.98z M292.52,101.72
				c-1.87,1.32-3.91,2.2-6.27,2.2c-2.25,0-3.63-1.43-3.63-3.74c0-5,6.27-5.06,9.9-5.06V101.72z"/>
			<g id="XMLID_213_">
				<path id="XMLID_220_" class="st0" d="M152.94,86.37c-4.84,0-6.33,2.92-6.33,8.3c0,5.5,1.54,8.52,6.38,8.52
					c4.73,0,6.27-2.97,6.27-8.52C159.26,89.29,157.77,86.37,152.94,86.37 M152.94,109.08c-9.56,0-14.18-5.83-14.18-14.4
					c0-8.02,4.12-14.41,14.18-14.41c9.29,0,14.13,5.5,14.13,14.41C167.06,103.2,162.56,109.08,152.94,109.08"/>
				<polygon id="XMLID_219_" class="st0" points="114.23,71.81 114.23,78.68 124.56,78.68 124.56,108.93 132.7,108.93 132.7,78.68 
					143.03,78.68 143.03,71.81 				"/>
				<path id="XMLID_218_" class="st0" d="M185.18,102.56c-3.96,0.1-4.34-0.41-4.37-2.76c0-0.12,0-0.25,0-0.38V87.09h6.38v-6.21
					h-6.38v-7.31h-7.64v7.31h-4.56v6.21h4.51v13.14c0,6.65,1.82,8.74,9.29,8.74c1.37,0,2.69-0.17,4.78-0.38v-6.17
					C186.61,102.47,186.14,102.53,185.18,102.56z"/>
				<rect id="XMLID_217_" x="220.75" y="69.42" class="st0" width="7.7" height="39.51"/>
				<path id="XMLID_214_" class="st0" d="M215.35,101.98v-1.19c0-0.01,0-0.01,0-0.01v-9.4c0-7.92-3.02-11.11-11.11-11.11
					c-4.89,0-8.91,1.1-13.25,3.3l2.42,5.28c3.08-1.71,6.55-2.86,10.12-2.86c2.8,0,4.07,0.82,4.07,3.41v1.31
					c-6.87-0.05-17.26,0.88-17.26,10.01c0,5.33,3.68,8.41,8.91,8.41c3.39,0,6.5-1.14,9.18-3.26c0.02,0.17,0.04,0.31,0.07,0.4
					c0.84,2.66,5.41,2.84,8.86,2.66l0.28-5.88C216.19,103.01,215.35,102.82,215.35,101.98z M207.77,101.72
					c-1.87,1.32-3.91,2.2-6.27,2.2c-2.25,0-3.63-1.43-3.63-3.74c0-5,6.27-5.06,9.9-5.06V101.72z"/>
			</g>
			<g id="XMLID_206_">
				<path id="XMLID_212_" class="st4" d="M68.17,70.54c1.07-0.62,1.07-1.63,0-2.25l-13.92-8.04c-1.07-0.62-1.95-0.11-1.95,1.12
					v16.07c0,1.24,0.88,1.74,1.95,1.12L68.17,70.54z"/>
				<path id="XMLID_211_" class="st5" d="M68.17,91.11c1.07-0.62,1.07-1.63,0-2.25l-13.92-8.04c-1.07-0.62-1.95-0.11-1.95,1.12
					v16.07c0,1.24,0.88,1.74,1.95,1.12L68.17,91.11z"/>
				<path id="XMLID_210_" class="st6" d="M68.17,111.68c1.07-0.62,1.07-1.63,0-2.25l-13.92-8.04c-1.07-0.62-1.95-0.11-1.95,1.12
					v16.07c0,1.24,0.88,1.74,1.95,1.12L68.17,111.68z"/>
				<path id="XMLID_209_" class="st2" d="M70.12,87.74c0,1.24,0.88,1.74,1.95,1.12l13.92-8.04c1.07-0.62,1.07-1.63,0-2.25
					l-13.92-8.04c-1.07-0.62-1.95-0.11-1.95,1.12V87.74z"/>
				<path id="XMLID_208_" class="st1" d="M70.12,108.31c0,1.24,0.88,1.74,1.95,1.13l13.92-8.04c1.07-0.62,1.07-1.63,0-2.25
					l-13.92-8.04c-1.07-0.62-1.95-0.11-1.95,1.12V108.31z"/>
				<path id="XMLID_207_" class="st3" d="M87.93,98.02c0,1.24,0.88,1.74,1.95,1.12l13.92-8.04c1.07-0.62,1.07-1.63,0-2.25
					l-13.92-8.04c-1.07-0.62-1.95-0.11-1.95,1.12V98.02z"/>
			</g>
		</g>
		<polygon id="XMLID_204_" class="st7" points="383.53,109.57 363.93,90 383.53,70.4 383.53,70.4 383.53,0 211.41,0 191.83,19.59 
			172.24,0 0,0 0,70.4 0,70.4 19.61,89.98 0,109.57 0,109.57 0,179.98 172.24,179.98 191.82,160.38 211.41,179.98 383.53,179.98 
			383.53,109.57 		"/>
	</g>
	<polygon id="XMLID_14_" class="st7" points="782.65,109.57 763.05,90 782.65,70.4 782.65,70.4 782.65,0 610.53,0 590.95,19.59 
		571.36,0 399.12,0 399.12,70.4 399.12,70.4 418.74,89.98 399.12,109.57 399.12,109.57 399.12,179.98 571.36,179.98 590.94,160.38 
		610.53,179.98 782.65,179.98 782.65,109.57 	"/>
</g>
</svg>
