<svg xmlns="http://www.w3.org/2000/svg" xmlns:xlink="http://www.w3.org/1999/xlink" width="131.056" height="46.173" viewBox="0 0 131.056 46.173">
  <defs>
    <linearGradient id="linear-gradient" x1="0.5" y1="0.344" x2="0.5" y2="1.344" gradientUnits="objectBoundingBox">
      <stop offset="0" stop-color="#09b2e5"/>
      <stop offset="1" stop-color="#50fdc6"/>
    </linearGradient>
  </defs>
  <g id="Grupo_70" data-name="Grupo 70" transform="translate(0)">
    <g id="Grupo_63" data-name="Grupo 63">
      <g id="Grupo_55" data-name="Grupo 55">
        <g id="Grupo_54" data-name="Grupo 54">
          <g id="Grupo_53" data-name="Grupo 53">
            <path id="Trazado_10" data-name="Trazado 10" d="M120.056,0H11.006c-.424,0-.842,0-1.264,0-.353,0-.7.009-1.061.015a15.186,15.186,0,0,0-2.313.2A7.757,7.757,0,0,0,4.174.944,7.439,7.439,0,0,0,2.306,2.305,7.255,7.255,0,0,0,.945,4.176a7.647,7.647,0,0,0-.721,2.2A15.1,15.1,0,0,0,.017,8.684c-.01.354-.012.71-.017,1.063V36.429c.006.359.007.705.017,1.064A15.07,15.07,0,0,0,.224,39.8,7.608,7.608,0,0,0,.945,42a7.152,7.152,0,0,0,1.36,1.863,7.231,7.231,0,0,0,1.869,1.361,7.743,7.743,0,0,0,2.194.728,15.642,15.642,0,0,0,2.313.2c.357.008.708.013,1.061.013H120.056c.414,0,.837,0,1.251,0,.352,0,.712,0,1.064-.013a15.43,15.43,0,0,0,2.309-.2,7.83,7.83,0,0,0,2.2-.728,7.22,7.22,0,0,0,1.867-1.361A7.428,7.428,0,0,0,130.113,42a7.594,7.594,0,0,0,.715-2.2,15.682,15.682,0,0,0,.215-2.311c0-.359,0-.705,0-1.064.009-.419.009-.837.009-1.263V11.008c0-.422,0-.842-.009-1.261,0-.354,0-.709,0-1.063a15.53,15.53,0,0,0-.215-2.311,7.609,7.609,0,0,0-.715-2.2A7.473,7.473,0,0,0,126.882.944a7.783,7.783,0,0,0-2.2-.724,15.132,15.132,0,0,0-2.309-.2C122.019.01,121.659,0,121.307,0Z" fill="#a6a6a6"/>
            <path id="Trazado_11" data-name="Trazado 11" d="M9.614,45.028c-.352,0-.695,0-1.044-.013a14.723,14.723,0,0,1-2.157-.188A6.778,6.778,0,0,1,4.5,44.195a6.246,6.246,0,0,1-1.613-1.174,6.172,6.172,0,0,1-1.179-1.611A6.6,6.6,0,0,1,1.082,39.5,14.3,14.3,0,0,1,.89,37.332c-.007-.244-.017-1.054-.017-1.054V9.612s.01-.8.017-1.033a14.121,14.121,0,0,1,.192-2.161A6.577,6.577,0,0,1,1.709,4.5,6.207,6.207,0,0,1,2.88,2.887,6.415,6.415,0,0,1,4.5,1.707a6.716,6.716,0,0,1,1.908-.628A14.463,14.463,0,0,1,8.572.889L9.614.875H121.165l1.054.015a14.28,14.28,0,0,1,2.145.188,6.846,6.846,0,0,1,1.929.633A6.456,6.456,0,0,1,129.08,4.5a6.623,6.623,0,0,1,.618,1.9,15.118,15.118,0,0,1,.2,2.178c0,.327,0,.678,0,1.027.009.433.009.845.009,1.261V35.033c0,.419,0,.829-.009,1.241,0,.375,0,.719,0,1.074a14.845,14.845,0,0,1-.2,2.14,6.6,6.6,0,0,1-.623,1.928,6.518,6.518,0,0,1-2.788,2.781,6.78,6.78,0,0,1-1.925.635,14.563,14.563,0,0,1-2.157.188c-.338.008-.693.013-1.035.013l-1.251,0Z" transform="translate(0.135 0.135)"/>
          </g>
        </g>
      </g>
      <path id="Trazado_12" data-name="Trazado 12" d="M23.481,7.432H16.432c-.3,0-.59,0-.885,0s-.584,0-.876.013a12.751,12.751,0,0,0-1.908.167,6.407,6.407,0,0,0-1.812.6A6.1,6.1,0,0,0,8.282,10.88a6.458,6.458,0,0,0-.6,1.815A12.737,12.737,0,0,0,7.517,14.6c-.008.292-.012.584-.013.876,0,.347,0,.694,0,1.041V27.393c0,.347,0,.694,0,1.041,0,.292,0,.584.013.876a12.737,12.737,0,0,0,.167,1.908,6.426,6.426,0,0,0,.6,1.813A6.1,6.1,0,0,0,10.949,35.7a6.426,6.426,0,0,0,1.813.6,12.735,12.735,0,0,0,1.907.167c.292.008.584.012.876.013s.606,0,.91,0H27.611c.3,0,.594,0,.892,0s.584,0,.876-.013a12.75,12.75,0,0,0,1.908-.167,6.407,6.407,0,0,0,1.812-.6,6.1,6.1,0,0,0,2.666-2.666,6.458,6.458,0,0,0,.6-1.815,12.738,12.738,0,0,0,.167-1.908c.008-.292.012-.584.013-.876,0-.347,0-.694,0-1.041V16.519c0-.347,0-.694,0-1.041,0-.292,0-.584-.013-.876a12.738,12.738,0,0,0-.167-1.908,6.426,6.426,0,0,0-.6-1.813A6.1,6.1,0,0,0,33.1,8.213a6.426,6.426,0,0,0-1.813-.6,12.735,12.735,0,0,0-1.907-.167c-.292-.008-.584-.012-.876-.013s-.607,0-.911,0H23.481Z" transform="translate(1.158 1.147)" fill="#a6a6a6"/>
      <path id="Trazado_13" data-name="Trazado 13" d="M23.412,7.882h4.113l.908,0c.289,0,.577,0,.866.013a12.34,12.34,0,0,1,1.83.159,5.943,5.943,0,0,1,1.67.549,5.576,5.576,0,0,1,2.439,2.439,5.968,5.968,0,0,1,.549,1.67,12.2,12.2,0,0,1,.159,1.831c.008.289.012.577.013.866,0,.323,0,.645,0,.968V27.387c0,.324,0,.649,0,.973,0,.289,0,.577-.013.866a12.327,12.327,0,0,1-.159,1.83,5.931,5.931,0,0,1-.549,1.67A5.576,5.576,0,0,1,32.8,35.164a5.935,5.935,0,0,1-1.669.549,12.349,12.349,0,0,1-1.83.16c-.289.008-.577.012-.866.013l-.89,0H16.388l-.906,0c-.289,0-.577,0-.866-.013a12.341,12.341,0,0,1-1.83-.159,5.943,5.943,0,0,1-1.67-.549,5.576,5.576,0,0,1-2.439-2.439,5.968,5.968,0,0,1-.549-1.67,12.2,12.2,0,0,1-.159-1.831c-.008-.289-.012-.577-.013-.866,0-.324,0-.649,0-.973v-11c0-.324,0-.649,0-.973,0-.289,0-.577.013-.866a12.327,12.327,0,0,1,.159-1.83,5.931,5.931,0,0,1,.549-1.67,5.576,5.576,0,0,1,2.439-2.439,5.936,5.936,0,0,1,1.669-.549,12.349,12.349,0,0,1,1.83-.16c.289-.008.577-.012.866-.013l.883,0h7.048" transform="translate(1.227 1.216)" fill="#1e1e1f"/>
      <g id="Grupo_57" data-name="Grupo 57" transform="translate(12.818 17.202)">
        <g id="Grupo_56" data-name="Grupo 56">
          <path id="Trazado_14" data-name="Trazado 14" d="M15.34,17.316A2.2,2.2,0,0,1,15.9,15.7a2.334,2.334,0,0,1,1.547-.8,2.35,2.35,0,0,1-.541,1.677A1.945,1.945,0,0,1,15.34,17.316Zm2.88,3.154a2.382,2.382,0,0,1,1.132-1.995,2.468,2.468,0,0,0-1.916-1.042c-.862-.051-1.594.489-2.006.489s-1.042-.463-1.723-.45a2.541,2.541,0,0,0-2.161,1.312c-.926,1.6-.245,3.964.656,5.264.437.643.964,1.351,1.659,1.325.656-.025.913-.425,1.711-.425s1.029.425,1.723.412c.72-.013,1.17-.643,1.608-1.287a5.687,5.687,0,0,0,.72-1.48A2.339,2.339,0,0,1,18.22,20.469Zm12.1-2.508L28.5,23.848h-.035l-1.82-5.887H25.111l2.6,7.325H29.25l2.582-7.325Zm-7.4-1.749H21.47V17.96H20.393v1.154H21.47v4.258c0,1.413.567,1.972,2.021,1.972a4.763,4.763,0,0,0,.832-.063V24.12a4.786,4.786,0,0,1-.5.035c-.615,0-.895-.293-.895-.93V19.113h1.4V17.959h-1.4V16.212Z" transform="translate(-11.104 -14.902)" fill="url(#linear-gradient)"/>
        </g>
      </g>
      <g id="Grupo_62" data-name="Grupo 62" transform="translate(44.84 9.3)">
        <g id="Grupo_61" data-name="Grupo 61">
          <g id="Grupo_60" data-name="Grupo 60">
            <g id="Grupo_59" data-name="Grupo 59">
              <g id="Grupo_58" data-name="Grupo 58">
                <path id="Trazado_15" data-name="Trazado 15" d="M41.331,8.768c2.043,0,3.241,1.255,3.241,3.423,0,2.2-1.188,3.465-3.241,3.465H38.845V8.768Zm-1.418,5.914h1.3A2.165,2.165,0,0,0,43.484,12.2a2.172,2.172,0,0,0-2.272-2.463h-1.3Z" transform="translate(-38.845 -7.947)" fill="#fff"/>
                <path id="Trazado_16" data-name="Trazado 16" d="M44.962,8.984a.665.665,0,1,1,.664.626A.631.631,0,0,1,44.962,8.984Zm.152,1.538h1.022v5.2H45.114Z" transform="translate(-37.901 -8.011)" fill="#fff"/>
                <path id="Trazado_17" data-name="Trazado 17" d="M49.346,10.145c1.169,0,1.933.544,2.033,1.46H50.4c-.1-.382-.468-.626-1.05-.626s-1.008.271-1.008.678c0,.311.263.506.825.635l.865.2c.988.23,1.451.655,1.451,1.419,0,.979-.912,1.632-2.153,1.632s-2.043-.559-2.134-1.48h1.026a1.055,1.055,0,0,0,1.131.649c.639,0,1.093-.286,1.093-.7,0-.311-.242-.51-.763-.635l-.907-.21c-.988-.234-1.446-.678-1.446-1.451C47.327,10.794,48.172,10.145,49.346,10.145Z" transform="translate(-37.557 -7.735)" fill="#fff"/>
                <path id="Trazado_18" data-name="Trazado 18" d="M52.535,11.384h-.854V10.52h.854v-.506c0-1.06.577-1.5,1.661-1.5a3,3,0,0,1,.554.048v.821a2.674,2.674,0,0,0-.454-.038c-.492,0-.749.224-.749.735v.439h1.159v.865H53.561V15.7H52.535Z" transform="translate(-36.864 -7.986)" fill="#fff"/>
                <path id="Trazado_19" data-name="Trazado 19" d="M55.434,10.244h.988v.8H56.5a1.41,1.41,0,0,1,1.4-.883,2.142,2.142,0,0,1,.458.043v1.012a2.8,2.8,0,0,0-.573-.062,1.219,1.219,0,0,0-1.327,1.222v3.069H55.433v-5.2Z" transform="translate(-36.285 -7.733)" fill="#fff"/>
                <path id="Trazado_20" data-name="Trazado 20" d="M63.34,15.766h-.988V14.94h-.081a1.558,1.558,0,0,1-1.57.926,1.688,1.688,0,0,1-1.79-1.924V10.568h1.027v3.107c0,.84.339,1.241,1.093,1.241a1.18,1.18,0,0,0,1.284-1.308v-3.04h1.026v5.2ZM60.51,9.7l1.2-1.641h1.2L61.569,9.7Z" transform="translate(-35.748 -8.057)" fill="#fff"/>
                <path id="Trazado_21" data-name="Trazado 21" d="M65.616,9.111v1.318h1.127v.865H65.616v2.672c0,.545.224.783.735.783a3.237,3.237,0,0,0,.391-.024v.854a3.433,3.433,0,0,1-.559.052c-1.14,0-1.594-.4-1.594-1.4V11.292h-.825v-.865h.825V9.111Z" transform="translate(-34.999 -7.894)" fill="#fff"/>
                <path id="Trazado_22" data-name="Trazado 22" d="M67.259,13.974c0-.936.7-1.475,1.933-1.551l1.408-.081v-.449c0-.549-.362-.859-1.064-.859-.574,0-.97.21-1.084.577h-.992c.105-.892.944-1.466,2.124-1.466,1.3,0,2.039.649,2.039,1.746v3.552h-.988v-.731h-.08a1.752,1.752,0,0,1-1.562.816A1.571,1.571,0,0,1,67.259,13.974Zm3.342-.444v-.435l-1.27.081c-.717.048-1.041.291-1.041.749s.406.74.965.74A1.223,1.223,0,0,0,70.6,13.529Z" transform="translate(-34.46 -7.735)" fill="#fff"/>
                <path id="Trazado_23" data-name="Trazado 23" d="M72.471,8.474H73.5V15.7H72.471Z" transform="translate(-33.656 -7.993)" fill="#fff"/>
                <path id="Trazado_24" data-name="Trazado 24" d="M74.594,12.843a2.462,2.462,0,1,1,4.9,0,2.463,2.463,0,1,1-4.9,0Zm3.847,0c0-1.127-.506-1.786-1.393-1.786s-1.394.659-1.394,1.786.5,1.789,1.394,1.789S78.441,13.974,78.441,12.843Z" transform="translate(-33.328 -7.735)" fill="#fff"/>
                <path id="Trazado_25" data-name="Trazado 25" d="M86.906,14.04a2.11,2.11,0,0,1-2.252,1.5c-1.489,0-2.4-1.022-2.4-2.683s.932-2.716,2.4-2.716c1.446,0,2.319.988,2.319,2.62v.358H83.3v.058a1.373,1.373,0,0,0,1.384,1.489,1.245,1.245,0,0,0,1.236-.63ZM83.3,12.365h2.625a1.255,1.255,0,0,0-1.279-1.347A1.33,1.33,0,0,0,83.3,12.365Z" transform="translate(-32.146 -7.735)" fill="#fff"/>
                <path id="Trazado_26" data-name="Trazado 26" d="M87.532,10.245h.987v.825H88.6a1.557,1.557,0,0,1,1.551-.926,1.691,1.691,0,0,1,1.8,1.933v3.365H90.92V12.336c0-.836-.362-1.25-1.122-1.25A1.191,1.191,0,0,0,88.557,12.4v3.04H87.531v-5.2Z" transform="translate(-31.332 -7.735)" fill="#fff"/>
              </g>
            </g>
          </g>
        </g>
      </g>
    </g>
    <g id="Grupo_64" data-name="Grupo 64" transform="translate(44.049 21.655)">
      <path id="Trazado_27" data-name="Trazado 27" d="M47.25,29.222H41.787L40.474,33.1H38.16L43.335,18.76h2.4L50.914,33.1H48.56Zm-4.9-1.788h4.331l-2.135-6.288h-.06Z" transform="translate(-38.16 -18.76)" fill="#fff"/>
      <path id="Trazado_28" data-name="Trazado 28" d="M60.21,27.374c0,3.307-1.738,5.4-4.361,5.4a3.561,3.561,0,0,1-3.288-1.9h-.051v5.176H50.366V22.149h2.077v1.8h.039A3.619,3.619,0,0,1,55.81,21.98C58.461,21.979,60.21,24.066,60.21,27.374Zm-2.2,0c0-2.186-1.063-3.586-2.762-3.586-1.639,0-2.742,1.431-2.742,3.586,0,2.176,1.092,3.585,2.742,3.585C56.942,30.959,58.005,29.569,58.005,27.374Z" transform="translate(-36.276 -18.263)" fill="#fff"/>
      <path id="Trazado_29" data-name="Trazado 29" d="M70.175,27.374c0,3.307-1.738,5.4-4.361,5.4a3.561,3.561,0,0,1-3.288-1.9h-.051v5.176H60.33V22.149h2.077v1.8h.039a3.619,3.619,0,0,1,3.328-1.968C68.426,21.979,70.175,24.066,70.175,27.374Zm-2.206,0c0-2.186-1.063-3.586-2.762-3.586-1.639,0-2.742,1.431-2.742,3.586,0,2.176,1.092,3.585,2.742,3.585C66.906,30.959,67.969,29.569,67.969,27.374Z" transform="translate(-34.739 -18.263)" fill="#fff"/>
      <path id="Trazado_30" data-name="Trazado 30" d="M70.364,18.76H72.51V33.1H70.364Z" transform="translate(-33.19 -18.76)" fill="#fff"/>
      <path id="Trazado_31" data-name="Trazado 31" d="M83.161,29.532c-.3,1.907-2.105,3.268-4.5,3.268-3.069,0-4.928-2.075-4.928-5.373,0-3.278,1.887-5.463,4.837-5.463,2.9,0,4.71,2.045,4.71,5.216v.735H75.9v.128a2.739,2.739,0,0,0,2.812,3.02,2.368,2.368,0,0,0,2.414-1.529h2.036Zm-7.253-3.119h5.224a2.566,2.566,0,0,0-2.564-2.722A2.7,2.7,0,0,0,75.909,26.413Z" transform="translate(-32.67 -18.266)" fill="#fff"/>
      <path id="Trazado_32" data-name="Trazado 32" d="M89.768,33.1V20.678H85.377V18.76h11v1.918H91.992V33.1Z" transform="translate(-30.873 -18.76)" fill="#fff"/>
      <path id="Trazado_33" data-name="Trazado 33" d="M100.763,33.1,95.647,18.76h2.415l3.9,11.832h.06L105.94,18.76h2.374L103.2,33.1Z" transform="translate(-29.288 -18.76)" fill="#fff"/>
    </g>
  </g>
</svg>
