<svg xmlns="http://www.w3.org/2000/svg" width="26.45" height="26.449" viewBox="0 0 26.45 26.449">
  <g id="Grupo_40" data-name="Grupo 40" transform="translate(-328.675)">
    <g id="Grupo_11" data-name="Grupo 11" transform="translate(355.125 0) rotate(90)">
      <path id="Trazado_7" data-name="Trazado 7" d="M24.676,6.587a13.169,13.169,0,0,0-4.813-4.813A12.936,12.936,0,0,0,13.225,0,12.936,12.936,0,0,0,6.587,1.774,13.166,13.166,0,0,0,1.774,6.587,12.936,12.936,0,0,0,0,13.225a12.939,12.939,0,0,0,1.774,6.638,13.169,13.169,0,0,0,4.813,4.813,12.937,12.937,0,0,0,6.638,1.774,12.937,12.937,0,0,0,6.638-1.774,13.166,13.166,0,0,0,4.813-4.813,12.939,12.939,0,0,0,1.773-6.638A12.94,12.94,0,0,0,24.676,6.587Zm-3.341,11.34a9.342,9.342,0,0,1-3.409,3.41,9.156,9.156,0,0,1-4.7,1.257,9.157,9.157,0,0,1-4.7-1.257,9.342,9.342,0,0,1-3.409-3.41,9.155,9.155,0,0,1-1.257-4.7,9.157,9.157,0,0,1,1.257-4.7,9.337,9.337,0,0,1,3.409-3.41,9.156,9.156,0,0,1,4.7-1.257,9.156,9.156,0,0,1,4.7,1.257,9.338,9.338,0,0,1,3.409,3.41,9.156,9.156,0,0,1,1.257,4.7A9.156,9.156,0,0,1,21.335,17.926Z" transform="translate(0 0)" fill="#fff"/>
      <path id="Unión_3" data-name="Unión 3" d="M5.629,13.226a1,1,0,0,1-1-1V8.6H1a1,1,0,0,1-1-1V5.629a1,1,0,0,1,1-1H4.63V1a1,1,0,0,1,1-1H7.6a1,1,0,0,1,1,1V4.63h3.63a1,1,0,0,1,1,1V7.6a1,1,0,0,1-1,1H8.6v3.63a1,1,0,0,1-1,1Z" transform="translate(13.226 3.874) rotate(45)" fill="#fff"/>
    </g>
  </g>
</svg>
